<?xml version="1.0" encoding="UTF-8"?>
<svg version="1.1" xmlns="http://www.w3.org/2000/svg" width="2000" height="413">
<path d="M0 0 C38.39710346 35.76569358 60.27323857 86.90227142 62.875 138.9375 C64.56045504 188.26947255 49.37168152 236.7323761 18 275 C17.56719727 275.53431641 17.13439453 276.06863281 16.68847656 276.61914062 C-15.20137936 315.8932802 -58.531363 339.79760163 -108 349 C-108.70850098 349.13422363 -109.41700195 349.26844727 -110.14697266 349.40673828 C-141.5980433 355.04936034 -175.96403299 351.04157276 -206 341 C-206.72219727 340.76023437 -207.44439453 340.52046875 -208.18847656 340.2734375 C-218.58509589 336.75473045 -228.31935687 332.1463548 -238 327 C-239.70736328 326.11054687 -239.70736328 326.11054687 -241.44921875 325.203125 C-257.43050687 316.51643181 -271.56686588 305.18594051 -284.50341797 292.46582031 C-285.75708931 291.23791775 -287.03410224 290.03390785 -288.31640625 288.8359375 C-324.06804104 254.88994083 -343.37527251 202.50890798 -345.28515625 154.05859375 C-346.30569854 109.97189317 -334.03217737 65.83264697 -308 30 C-307.59813477 29.4426416 -307.19626953 28.8852832 -306.78222656 28.31103516 C-300.86588019 20.17546296 -294.33450308 12.70677504 -287.38134766 5.44433594 C-286.15491961 4.16198382 -284.94170513 2.86702339 -283.73046875 1.5703125 C-254.57930284 -28.82478072 -213.80892434 -46.54659646 -173 -54 C-172.28521484 -54.13277344 -171.57042969 -54.26554687 -170.83398438 -54.40234375 C-108.38648629 -65.39705657 -45.98781539 -41.52392403 0 0 Z M-187 26 C-189.03278879 29.04918318 -189.25053457 29.63351995 -189.25726891 33.05649376 C-189.2637178 33.88494816 -189.27016669 34.71340256 -189.276811 35.56696165 C-189.2737138 36.47696727 -189.2706166 37.38697289 -189.26742554 38.32455444 C-189.27195665 39.2913918 -189.27648776 40.25822915 -189.28115618 41.25436461 C-189.29386194 44.50865432 -189.29217584 47.762778 -189.29052734 51.01708984 C-189.29650873 53.34436764 -189.30331337 55.67164345 -189.31088257 57.99891663 C-189.32858925 64.33152793 -189.33323991 70.66408522 -189.33451414 76.99671888 C-189.3364103 82.27772649 -189.34376454 87.55872144 -189.35085833 92.83972418 C-189.36651007 104.58412049 -189.37219466 116.32849334 -189.37084763 128.07289915 C-189.37076772 128.77780727 -189.3706878 129.4827154 -189.37060547 130.20898438 C-189.37052371 130.91475202 -189.37044195 131.62051966 -189.37035771 132.34767421 C-189.36954474 143.7866808 -189.38868418 155.22555573 -189.4168822 166.66452424 C-189.44559931 178.40661162 -189.45942314 190.14863476 -189.45769465 201.89075816 C-189.45718392 208.48443592 -189.46292843 215.07796475 -189.48405075 221.67161179 C-189.50336983 227.8719017 -189.50360089 234.07189961 -189.48901749 240.27219963 C-189.48692043 242.55026232 -189.49168328 244.82834298 -189.5037384 247.10637474 C-189.51910974 250.21175587 -189.50993602 253.31611999 -189.49447632 256.42147827 C-189.50476344 257.32702245 -189.51505057 258.23256663 -189.52564943 259.16555154 C-189.47994989 263.30775895 -189.35375987 265.44062314 -187.09238625 269.01638222 C-184.40286457 271.56609455 -182.54738163 272.89204314 -178.81640625 273.15234375 C-174.54362843 272.7450599 -172.4592279 272.36355542 -169 269.625 C-165.43176108 264.94168642 -165.85409184 260.46994982 -165.85955811 254.82730103 C-165.85658698 253.87679788 -165.85361586 252.92629473 -165.8505547 251.94698846 C-165.84185263 248.74801605 -165.84035819 245.54908099 -165.83886719 242.35009766 C-165.83424013 240.06222961 -165.82921562 237.77436234 -165.82382202 235.48649597 C-165.81068636 229.26133011 -165.80425094 223.03617504 -165.79981136 216.81099749 C-165.7968829 212.92454793 -165.79277856 209.03810135 -165.78830719 205.15165329 C-165.77619761 194.39256434 -165.76581546 183.63347927 -165.7624321 172.87438393 C-165.76221253 172.18579368 -165.76199297 171.49720343 -165.76176675 170.78774681 C-165.76154847 170.09750552 -165.76133019 169.40726424 -165.7611053 168.69610655 C-165.76066183 167.29740437 -165.76021527 165.89870218 -165.75976562 164.5 C-165.7595442 163.80619481 -165.75932277 163.11238963 -165.75909463 162.39756005 C-165.75514564 151.1525759 -165.73768823 139.90765651 -165.7144061 128.66269739 C-165.69069922 117.11949623 -165.67848863 105.5763368 -165.67706418 94.03311002 C-165.67601435 87.55123688 -165.67006868 81.0694551 -165.65224457 74.58760452 C-165.63580994 68.49241912 -165.63358596 62.3973942 -165.64238358 56.3021946 C-165.64315639 54.06283324 -165.63877927 51.82346342 -165.62892532 49.58412361 C-165.61627817 46.53144477 -165.62204333 43.47934055 -165.63250732 40.42666626 C-165.62445092 39.53668587 -165.61639452 38.64670549 -165.60809398 37.729756 C-165.65451644 31.95508558 -166.74365226 28.79090947 -170.41796875 24.24609375 C-175.82404624 19.98797346 -182.26333894 21.84098053 -187 26 Z M-150 42 C-152.93384444 46.73501213 -153.43115113 50.7914212 -153.38768005 56.23596191 C-153.39306559 57.04948199 -153.39845113 57.86300206 -153.40399987 58.70117426 C-153.41827236 61.41877663 -153.41117756 64.13589143 -153.40405273 66.85351562 C-153.40975662 68.80523571 -153.41672095 70.75695245 -153.42485046 72.70866394 C-153.44279354 78.00404528 -153.44161146 83.29926101 -153.43590808 88.59466362 C-153.43281832 93.01581024 -153.43890621 97.43692495 -153.44494683 101.85806704 C-153.45899382 112.28707819 -153.4574289 122.71600742 -153.44604492 133.14501953 C-153.43455938 143.90488057 -153.4486464 154.66449248 -153.4754414 165.4243207 C-153.49758837 174.66354265 -153.50423815 183.90268635 -153.49836498 193.14193296 C-153.49499232 198.6596902 -153.49743131 204.17728767 -153.51461601 209.69502258 C-153.53006734 214.88255214 -153.52614962 220.06971209 -153.50731087 225.25722694 C-153.50362018 227.1607538 -153.50674738 229.06430793 -153.51719666 230.96780968 C-153.53037536 233.56697989 -153.5188873 236.16492082 -153.50120544 238.76403809 C-153.51081045 239.51676703 -153.52041546 240.26949597 -153.53031152 241.04503489 C-153.45868192 246.16450819 -152.20182394 249.04368142 -149 253 C-146.68881229 254.99018942 -145.14876868 255.9439625 -142.078125 256.09375 C-137.34802667 255.73810351 -134.2483067 254.63046043 -131 251 C-129.18807099 245.90679184 -128.71156263 241.19631706 -128.73930359 235.84033203 C-128.73547804 235.04708086 -128.73165249 234.25382969 -128.72771102 233.4365406 C-128.71743897 230.79356272 -128.72136206 228.15080443 -128.7253418 225.5078125 C-128.72099217 223.60682983 -128.71580819 221.70584892 -128.70985413 219.80487061 C-128.69648138 214.65206707 -128.69588343 209.49933697 -128.69841743 204.34651947 C-128.69948808 200.04223352 -128.69460147 195.73796236 -128.689812 191.43367958 C-128.67872327 181.2793428 -128.67827618 171.12504302 -128.68432617 160.97070312 C-128.69036938 150.4988776 -128.67804465 140.02718631 -128.6567561 129.55538368 C-128.63914026 120.55902055 -128.63313863 111.56270016 -128.63639385 102.56632042 C-128.63820651 97.19556399 -128.63557192 91.82490339 -128.62167931 86.4541626 C-128.60910554 81.40456423 -128.61104086 76.35517529 -128.62409019 71.30558014 C-128.62645631 69.45407287 -128.62372002 67.60255087 -128.61546707 65.75106049 C-128.6050011 63.22035363 -128.61309879 60.69034976 -128.6257782 58.15966797 C-128.61840391 57.42998873 -128.61102963 56.70030949 -128.60343188 55.94851875 C-128.66796912 49.81051727 -130.04312706 45.18051557 -134.1875 40.5625 C-139.57611331 37.56882594 -145.23990878 37.91992181 -150 42 Z M-223 68 C-226.03286015 72.54929023 -226.12507909 76.60757685 -226.14044189 81.98300171 C-226.14615204 83.18298294 -226.15186218 84.38296417 -226.15774536 85.61930847 C-226.15886322 86.92749039 -226.15998108 88.2356723 -226.16113281 89.58349609 C-226.16576454 90.98172638 -226.17078968 92.37995541 -226.17617798 93.77818298 C-226.18926775 97.56955784 -226.19573996 101.36091503 -226.20018864 105.15230894 C-226.20312424 107.52282287 -226.20722991 109.89333202 -226.21169281 112.26384354 C-226.22535727 119.68608463 -226.23502968 127.10831473 -226.2388947 134.53056753 C-226.24337628 143.08879357 -226.26093318 151.64685997 -226.2898953 160.20503747 C-226.31152716 166.8277015 -226.32159975 173.45032065 -226.32293582 180.07301962 C-226.32398255 184.02530859 -226.32986255 187.97744727 -226.34775543 191.92969894 C-226.36426277 195.64798128 -226.36637885 199.36600074 -226.35761642 203.08430672 C-226.356482 205.09276875 -226.3701778 207.10122218 -226.3843689 209.1096344 C-226.34890353 216.78724492 -226.30253651 222.69746349 -220.625 228.375 C-217.81994605 230.11146197 -216.29495962 230.92154858 -213 231 C-208.46709922 229.51508423 -205.38123419 228.23330523 -203 224 C-201.92643778 220.77931335 -201.86622237 218.44840289 -201.85282898 215.06095886 C-201.84567368 213.82021103 -201.83851837 212.5794632 -201.83114624 211.30111694 C-201.82830603 209.92364527 -201.82559429 208.54617333 -201.82299805 207.16870117 C-201.81673245 205.71988258 -201.81008556 204.27106559 -201.80308533 202.82225037 C-201.78205583 198.06250119 -201.77168473 193.30275172 -201.76171875 188.54296875 C-201.75767093 186.90399979 -201.753554 185.265031 -201.74936867 183.62606239 C-201.73032029 175.92670666 -201.71608791 168.22736051 -201.7077567 160.52798575 C-201.69798192 151.64141387 -201.6716548 142.75509091 -201.63125581 133.86860675 C-201.60109709 126.99886812 -201.5862881 120.12920087 -201.58297569 113.25939733 C-201.58062511 109.15671291 -201.57166381 105.05429453 -201.54651451 100.95168114 C-201.52323253 97.09138422 -201.51900081 93.23152851 -201.52927589 89.37117958 C-201.52977132 87.95624448 -201.52344863 86.54128765 -201.50971985 85.12641907 C-201.18454575 75.18838423 -201.18454575 75.18838423 -206 67 C-208.74018076 64.8366994 -210.48652151 64.07647552 -213.9375 63.5625 C-217.83530088 64.1193287 -219.93989651 65.56582677 -223 68 Z M-41 74 C-44.69275779 80.39500507 -44.42496624 86.53726698 -44.38818359 93.78491211 C-44.39344055 95.06055527 -44.39869751 96.33619843 -44.40411377 97.65049744 C-44.41773685 101.13406788 -44.41250929 104.61737039 -44.40297651 108.10094523 C-44.39535217 111.75672139 -44.40243336 115.41247545 -44.40713501 119.06825256 C-44.41258521 125.20724583 -44.40542107 131.34613064 -44.39111328 137.48510742 C-44.37479539 144.56803905 -44.38007186 151.65071147 -44.3965925 158.7336368 C-44.41023712 164.82899176 -44.41211231 170.92426899 -44.40427649 177.01963431 C-44.39961534 180.65388423 -44.3989318 184.2880126 -44.40888596 187.92225456 C-44.41921671 191.97688849 -44.40486983 196.03108061 -44.38818359 200.08569336 C-44.39425629 201.28023132 -44.40032898 202.47476929 -44.40658569 203.70550537 C-44.35742553 210.16500454 -43.91239313 215.18339298 -41 221 C-37.55375577 224.06553052 -35.0170787 225 -30.375 225 C-26.64782597 223.89565214 -24.70262288 222.77984068 -22 220 C-20.19196092 216.31678353 -19.74775029 213.35016143 -19.73930359 209.26928711 C-19.72867638 207.5533284 -19.72867638 207.5533284 -19.71783447 205.80270386 C-19.72031189 204.55683502 -19.72278931 203.31096619 -19.7253418 202.02734375 C-19.72023087 200.70815948 -19.71511993 199.38897522 -19.70985413 198.02981567 C-19.6964828 194.41829269 -19.69588325 190.80687448 -19.69841743 187.19533157 C-19.69948818 184.17835494 -19.69460122 181.16139941 -19.689812 178.1444273 C-19.67872377 171.02693282 -19.67827588 163.90949112 -19.68432617 156.79199219 C-19.6903694 149.45230354 -19.67804463 142.11280642 -19.6567561 134.77315044 C-19.63913941 128.46727877 -19.63313875 122.16146807 -19.63639385 115.8555727 C-19.63820638 112.09115196 -19.63557335 108.32686792 -19.62167931 104.56246948 C-19.60676839 100.36573851 -19.61607163 96.16939761 -19.62768555 91.97265625 C-19.62004181 90.72678741 -19.61239807 89.48091858 -19.60452271 88.19729614 C-19.61153702 87.05332367 -19.61855133 85.9093512 -19.6257782 84.73071289 C-19.62552659 83.24300133 -19.62552659 83.24300133 -19.62526989 81.72523499 C-20.22162514 77.38822511 -22.24858796 74.7722846 -25.25 71.6875 C-31.14939215 68.06741845 -36.04116585 69.60466973 -41 74 Z M-113 80 C-115.54239942 83.53352797 -116.37557195 85.98221386 -116.38095093 90.31311035 C-116.3894104 91.36452713 -116.39786987 92.41594391 -116.40658569 93.4992218 C-116.400513 94.64223251 -116.39444031 95.78524323 -116.38818359 96.96289062 C-116.39344055 98.17478561 -116.39869751 99.3866806 -116.40411377 100.63529968 C-116.41504365 103.95154737 -116.41249824 107.26723243 -116.40297651 110.58344841 C-116.3953684 114.05779641 -116.40242872 117.53212076 -116.40713501 121.00646973 C-116.41258922 126.84045719 -116.40540979 132.67433064 -116.39111328 138.50830078 C-116.37478731 145.24816034 -116.38007607 151.98774762 -116.3965925 158.72760057 C-116.41021696 164.51968732 -116.41212236 170.31169221 -116.40427649 176.10378981 C-116.39960522 179.56080048 -116.39895999 183.01768327 -116.40888596 186.47468567 C-116.41917998 190.32893414 -116.40490247 194.18287889 -116.38818359 198.03710938 C-116.39425629 199.18012009 -116.40032898 200.3231308 -116.40658569 201.5007782 C-116.39812622 202.55219498 -116.38966675 203.60361176 -116.38095093 204.68688965 C-116.37981985 205.59757957 -116.37868877 206.5082695 -116.37752342 207.44655609 C-115.91474032 210.57666833 -114.83928416 212.44368962 -113 215 C-109.68308754 217.31412497 -107.00314507 218.27808394 -103 218.125 C-98.84214806 217.28002889 -96.87061135 215.518984 -94.24678802 212.26539612 C-91.76294337 207.75228569 -92.16965891 202.87540072 -92.22363281 197.84179688 C-92.2131189 196.63282242 -92.20260498 195.42384796 -92.19177246 194.17823792 C-92.16995447 190.87790106 -92.17497121 187.57983431 -92.19404697 184.27962685 C-92.20930014 180.81688137 -92.19513246 177.35422902 -92.18572998 173.89147949 C-92.17483198 168.07770491 -92.18915192 162.26438851 -92.21777344 156.45068359 C-92.25042467 149.74121554 -92.23984633 143.03284158 -92.206815 136.32340002 C-92.17953524 130.54985399 -92.17576987 124.77663621 -92.19144702 119.00304651 C-92.20077321 115.56039671 -92.202127 112.11826019 -92.18222809 108.67564392 C-92.16158257 104.83606866 -92.19024235 100.99770634 -92.22363281 97.15820312 C-92.21148743 96.02552505 -92.19934204 94.89284698 -92.18682861 93.72584534 C-92.2869245 87.50628613 -92.9615427 83.7796214 -97.32416916 79.21367645 C-102.47092249 75.48627559 -108.01062244 76.51903891 -113 80 Z M-79 106 C-80.16998035 109.50994104 -80.15531206 112.67753897 -80.16113281 116.32958984 C-80.16609772 117.07302139 -80.17106262 117.81645294 -80.17617798 118.58241272 C-80.19078355 121.04193039 -80.1975987 123.50138358 -80.203125 125.9609375 C-80.20887752 127.6710307 -80.21463524 129.38112388 -80.22039795 131.09121704 C-80.23090319 134.67735087 -80.23674906 138.26346232 -80.24023438 141.84960938 C-80.2457199 146.44190923 -80.26975108 151.03391272 -80.29820633 155.62611961 C-80.3168409 159.15889345 -80.32203873 162.69159599 -80.32357025 166.22441483 C-80.32659516 167.91727952 -80.33461828 169.61014302 -80.34775543 171.30295944 C-80.3648343 173.67274207 -80.36293153 176.04180168 -80.35644531 178.41162109 C-80.3656601 179.10893845 -80.37487488 179.8062558 -80.3843689 180.52470398 C-80.34714306 184.87235138 -79.55220918 187.48876763 -77 191 C-76.4121875 191.86625 -76.4121875 191.86625 -75.8125 192.75 C-72.80810713 194.82199508 -69.55619135 195.10776337 -66 195 C-62.48245647 193.80536257 -60.62334973 192.80906654 -58.35629272 189.86657715 C-56.65936448 186.28005365 -56.57872161 183.14478227 -56.61181641 179.25976562 C-56.60655945 178.49653488 -56.60130249 177.73330414 -56.59588623 176.94694519 C-56.58272155 174.43316972 -56.59141152 171.92003151 -56.6015625 169.40625 C-56.59954074 167.65417357 -56.59662846 165.90209797 -56.59286499 164.15002441 C-56.58844643 160.48160779 -56.59485757 156.81341061 -56.60888672 153.14501953 C-56.62597838 148.44735496 -56.61613469 143.75020461 -56.59816933 139.0525589 C-56.58731881 135.4356907 -56.59078364 131.81894404 -56.5985527 128.20207214 C-56.60055121 126.4701481 -56.59810773 124.73821296 -56.59111404 123.00630188 C-56.58347861 120.58398289 -56.59513245 118.16249185 -56.61181641 115.74023438 C-56.60574371 115.02735764 -56.59967102 114.3144809 -56.59341431 113.58000183 C-56.64893277 109.21985253 -57.31169718 106.45819469 -60 103 C-67.35676104 98.36204195 -73.3600477 99.23205724 -79 106 Z M-295 112 C-298.54152055 115.90788474 -299.12547165 119.31851184 -299.16113281 124.4777832 C-299.17074036 125.59937332 -299.1803479 126.72096344 -299.19024658 127.87654114 C-299.19449646 129.08904037 -299.19874634 130.30153961 -299.203125 131.55078125 C-299.20882507 132.79748093 -299.21452515 134.0441806 -299.22039795 135.32865906 C-299.22985166 137.96906179 -299.23674653 140.60935076 -299.24023438 143.24975586 C-299.24462437 145.95301781 -299.25853566 148.65596153 -299.28125 151.35913086 C-299.31171079 155.25644633 -299.32228257 159.15336 -299.328125 163.05078125 C-299.3404718 164.25720779 -299.3528186 165.46363434 -299.36553955 166.70661926 C-299.39686467 174.78760192 -299.39686467 174.78760192 -296 182 C-292.61509192 184.90134978 -289.46355179 185.59531586 -284.99609375 185.41796875 C-281.28090443 184.64003282 -279.57620635 182.76022109 -277 180 C-275.20568999 176.36260898 -274.74459053 173.42118263 -274.7253418 169.38696289 C-274.71580978 168.28554459 -274.70627777 167.18412628 -274.69645691 166.04933167 C-274.69782402 164.27887733 -274.69782402 164.27887733 -274.69921875 162.47265625 C-274.69493362 161.25098251 -274.6906485 160.02930878 -274.68623352 158.77061462 C-274.68049534 156.18928649 -274.67998618 153.60794219 -274.68432617 151.02661133 C-274.6874855 147.08061096 -274.66402137 143.1353608 -274.63867188 139.18945312 C-274.63639876 136.67968844 -274.63569544 134.16992175 -274.63671875 131.66015625 C-274.627509 130.48187759 -274.61829926 129.30359894 -274.60881042 128.08961487 C-274.6466748 121.37500832 -274.85574651 116.25654825 -279.75 111.1875 C-285.39338672 108.2090459 -289.74020518 108.53331705 -295 112 Z M-260 120 C-261.80164974 122.99407831 -262.25490701 125.2126329 -262.2746582 128.68920898 C-262.28419022 129.61374374 -262.29372223 130.5382785 -262.30354309 131.49082947 C-262.30263168 132.48256668 -262.30172028 133.47430389 -262.30078125 134.49609375 C-262.30506638 135.5217897 -262.3093515 136.54748566 -262.31376648 137.60426331 C-262.31950583 139.7720567 -262.32001296 141.93986936 -262.31567383 144.10766602 C-262.31251504 147.42172144 -262.33597446 150.73488312 -262.36132812 154.04882812 C-262.36360129 156.15624887 -262.36430454 158.26367202 -262.36328125 160.37109375 C-262.372491 161.36080673 -262.38170074 162.35051971 -262.39118958 163.370224 C-262.34763575 170.17647926 -262.34763575 170.17647926 -259 176 C-256.09799637 178.33772514 -254.27699106 178.96474659 -250.5625 179.4375 C-246.31654773 178.91606726 -244.26182423 177.73082959 -241 175 C-239.14230208 172.02009353 -238.73850295 169.71942519 -238.69360352 166.23486328 C-238.66962242 164.82287155 -238.66962242 164.82287155 -238.64515686 163.38235474 C-238.63979416 162.3718808 -238.63443146 161.36140686 -238.62890625 160.3203125 C-238.61987778 159.27479218 -238.6108493 158.22927185 -238.60154724 157.15206909 C-238.58704726 154.94141502 -238.57815864 152.73071806 -238.57446289 150.52001953 C-238.56256737 147.14411874 -238.51337805 143.77004633 -238.46289062 140.39453125 C-238.45342605 138.24480057 -238.44619118 136.09505869 -238.44140625 133.9453125 C-238.42187393 132.93888702 -238.40234161 131.93246155 -238.38221741 130.89553833 C-238.4115903 126.31575166 -238.45839347 123.03168538 -241.40991211 119.37841797 C-245.26848012 115.83518397 -247.66014826 115.65765038 -252.7421875 115.71484375 C-256.11376856 116.14066627 -257.74020743 117.53477174 -260 120 Z M-5 120 C-6.77884531 122.96536069 -7.25467029 125.15623561 -7.2746582 128.59741211 C-7.28419022 129.50192612 -7.29372223 130.40644012 -7.30354309 131.33836365 C-7.30263168 132.30822708 -7.30172028 133.27809052 -7.30078125 134.27734375 C-7.30506638 135.28084366 -7.3093515 136.28434357 -7.31376648 137.31825256 C-7.31950535 139.43896735 -7.3200133 141.55970181 -7.31567383 143.68041992 C-7.31251505 146.92205445 -7.33597489 150.16277523 -7.36132812 153.40429688 C-7.3636013 155.46614468 -7.36430453 157.52799494 -7.36328125 159.58984375 C-7.372491 160.55768295 -7.38170074 161.52552216 -7.39118958 162.52268982 C-7.3492814 168.62959539 -6.46775472 171.94759816 -2.58203125 176.75390625 C0.48778947 179.17186381 4.20657436 179.22656979 8 179 C11.84676353 177.04164766 13.60966175 175.58550738 16 172 C16.32283194 169.76182116 16.32283194 169.76182116 16.30639648 167.2565918 C16.32238388 166.29516769 16.33837128 165.33374359 16.35484314 164.34318542 C16.36020584 163.30567642 16.36556854 162.26816742 16.37109375 161.19921875 C16.38012222 160.13008743 16.3891507 159.06095612 16.39845276 157.95942688 C16.41296841 155.69571742 16.42184525 153.43196588 16.42553711 151.16821289 C16.43741914 147.71102785 16.48658206 144.25563559 16.53710938 140.79882812 C16.54657517 138.59896704 16.55380946 136.399095 16.55859375 134.19921875 C16.57812607 133.16778244 16.59765839 132.13634613 16.61778259 131.07365417 C16.58346415 124.75151001 16.58346415 124.75151001 13.59008789 119.36254883 C9.72726179 115.83907177 7.33190635 115.6577398 2.2578125 115.71484375 C-1.11376856 116.14066627 -2.74020743 117.53477174 -5 120 Z " fill="#4E4E4C" transform="translate(364,59)"/>
<path d="M0 0 C43.745625 -0.0928125 43.745625 -0.0928125 88.375 -0.1875 C97.55618652 -0.21481201 106.73737305 -0.24212402 116.19677734 -0.27026367 C127.4777832 -0.28381348 127.4777832 -0.28381348 132.77236938 -0.28633118 C136.44080133 -0.2891066 140.10910073 -0.30027032 143.77749634 -0.31672668 C148.47818224 -0.33752973 153.17867951 -0.34343236 157.87940717 -0.33921683 C159.59117674 -0.34009639 161.30295392 -0.34591027 163.01468349 -0.35764539 C177.611437 -0.45294807 192.3235779 0.76510224 206.1875 5.6875 C207.28892334 6.07095581 207.28892334 6.07095581 208.41259766 6.4621582 C221.76288883 11.29389789 232.09011511 17.87022122 242 28 C242.72703125 28.69480469 243.4540625 29.38960937 244.203125 30.10546875 C265.91898773 52.20606133 268.40608288 86.84956058 268.23664856 115.97883606 C267.91642662 146.52182411 260.67811447 175.63902174 239.1875 198.25 C234.28906661 203.01892582 228.91294487 206.60511531 223 210 C224.32565948 214.28859241 225.97808403 218.14428381 228.0546875 222.12109375 C228.663125 223.2915625 229.2715625 224.46203125 229.8984375 225.66796875 C230.55721234 226.92452076 231.2160685 228.18103013 231.875 229.4375 C232.55768916 230.74718871 233.23997591 232.05708726 233.921875 233.3671875 C235.62925966 236.64514231 237.34150984 239.92052449 239.05554199 243.19500732 C240.41691497 245.7967834 241.77491763 248.40031357 243.1328125 251.00390625 C244.56508104 253.74991243 245.99775263 256.49570022 247.43237305 259.24047852 C251.86756299 267.72947205 256.26253809 276.23912955 260.65530396 284.75012207 C264.90250776 292.97751225 269.1777157 301.18854033 273.56323242 309.34326172 C276 313.89643695 276 313.89643695 276 315 C239.04 315 202.08 315 164 315 C159.33082046 305.66164093 154.87309961 296.38175715 150.75 286.8125 C149.54504854 284.03034573 148.3372094 281.24945002 147.12890625 278.46875 C146.64965446 277.36464531 146.64965446 277.36464531 146.16072083 276.23823547 C143.44217587 269.98723889 140.67651667 263.75772627 137.90234375 257.53125 C137.02957957 255.56927361 136.15685814 253.6072782 135.28417969 251.64526367 C133.9910841 248.73846503 132.69641751 245.83242189 131.39660645 242.92861938 C130.1804333 240.21092208 128.97051055 237.49051798 127.76171875 234.76953125 C127.39570053 233.95629395 127.02968231 233.14305664 126.65257263 232.30517578 C126.31693802 231.5468042 125.98130341 230.78843262 125.63549805 230.00708008 C125.34241257 229.35081131 125.04932709 228.69454254 124.74736023 228.01838684 C124 226 124 226 123 221 C116.07 221 109.14 221 102 221 C102 252.02 102 283.04 102 315 C68.34 315 34.68 315 0 315 C0 211.05 0 107.1 0 0 Z M102 81 C102 101.46 102 121.92 102 143 C107.32125 143.061875 112.6425 143.12375 118.125 143.1875 C119.77258301 143.21481201 121.42016602 143.24212402 123.11767578 143.27026367 C140.6219609 143.5234955 140.6219609 143.5234955 155.765625 135.890625 C159.97630847 129.44135032 159.33976887 121.46797043 159.31567383 114.09399414 C159.31251262 112.07057836 159.33602847 110.04862653 159.36132812 108.02539062 C159.36552571 99.58404744 159.23091455 92.92949067 153.6875 86.1875 C144.17810961 79.27263093 129.28767936 80.62745607 118.125 80.8125 C112.80375 80.874375 107.4825 80.93625 102 81 Z " fill="#4E4E4C" transform="translate(1379,50)"/>
<path d="M0 0 C30.009375 -0.061875 60.01875 -0.12375 90.9375 -0.1875 C100.38882568 -0.21481201 109.84015137 -0.24212402 119.57788086 -0.27026367 C131.18078613 -0.28381348 131.18078613 -0.28381348 136.62452698 -0.28633118 C140.40050114 -0.28910931 144.17634685 -0.30028412 147.95228577 -0.31672668 C152.78802837 -0.33750108 157.62358765 -0.34343748 162.45937073 -0.33921683 C164.22203163 -0.34009771 165.98469979 -0.34592888 167.74732196 -0.35764539 C190.74857855 -0.50327712 214.27224119 2.91611848 231.75 19.1875 C247.96513776 36.33087463 248.66999634 57.90909399 248.22793579 80.13423157 C247.69143464 99.18799153 241.84072529 118.28219412 228 132 C220.69308068 138.14080774 212.72409422 144.02759058 203 145 C203 145.99 203 146.98 203 148 C204.216875 148.061875 205.43375 148.12375 206.6875 148.1875 C222.09459361 149.92896113 237.77640514 158.96458545 247.3828125 170.98046875 C263.83659915 193.17606421 266.58309789 222.65562298 263.3125 249.4375 C259.58754824 270.90770809 250.17245915 290.22982398 232.02734375 303.06640625 C218.5070309 311.70196091 202.54338498 315.1832776 186.63500977 315.12025452 C185.83380203 315.12111053 185.0325943 315.12196655 184.20710754 315.12284851 C181.53518392 315.12449329 178.86332407 315.1189971 176.19140625 315.11352539 C174.23803204 315.11321883 172.28465773 315.11335293 170.33128357 315.11389065 C165.11271227 315.11411588 159.89416402 315.10833104 154.67559814 315.10128021 C149.77396575 315.09557421 144.87233889 315.09531649 139.97070312 315.09460449 C125.64713238 315.08936264 111.3235659 315.07540144 97 315.0625 C48.985 315.0315625 48.985 315.0315625 0 315 C0 211.05 0 107.1 0 0 Z M102 69 C102 84.18 102 99.36 102 115 C107.960625 115.0825 113.92125 115.165 120.0625 115.25 C121.93043213 115.28641602 123.79836426 115.32283203 125.72290039 115.36035156 C127.22280736 115.37204674 128.72272714 115.3822366 130.22265625 115.390625 C131.36728333 115.4213208 131.36728333 115.4213208 132.53503418 115.45263672 C138.15178258 115.45625517 141.35613402 114.1810054 146 111 C152.25670971 103.6844625 151.53213314 94.0272586 151 85 C149.96138457 79.94438664 147.8142228 75.51309994 144 72 C135.49243577 68.14051612 127.10657551 68.65988466 117.9375 68.8125 C110.0484375 68.9053125 110.0484375 68.9053125 102 69 Z M102 190 C102 206.5 102 223 102 240 C112.6425 240.12375 112.6425 240.12375 123.5 240.25 C125.72427734 240.28641602 127.94855469 240.32283203 130.24023438 240.36035156 C132.0247298 240.37204592 133.80923598 240.38223597 135.59375 240.390625 C136.95741699 240.4213208 136.95741699 240.4213208 138.34863281 240.45263672 C144.37120689 240.45589922 149.0111545 239.51348012 154 236 C159.81571367 230.07660451 161.03735713 223.06792074 161.25 215 C161.0623639 207.44764695 159.96939544 200.93566678 155 195 C150.55896622 191.64656633 147.18134404 189.87054056 141.62036133 189.88647461 C140.72740356 189.88659546 139.8344458 189.88671631 138.91442871 189.88684082 C137.97973755 189.89195679 137.04504639 189.89707275 136.08203125 189.90234375 C134.7891217 189.90385437 134.7891217 189.90385437 133.47009277 189.90539551 C130.25088165 189.91062678 127.03168948 189.92458805 123.8125 189.9375 C116.614375 189.958125 109.41625 189.97875 102 190 Z " fill="#4E4E4C" transform="translate(1081,50)"/>
<path d="M0 0 C51.81 0 103.62 0 157 0 C159.90081417 10.442931 162.79450467 20.86679652 165.48609924 31.36251831 C166.33767765 34.67910581 167.19059895 37.99533722 168.04551697 41.31106567 C168.99417702 44.9912268 169.94197839 48.67160742 170.8890686 52.35217285 C173.46418574 62.35842295 176.04603441 72.3629367 178.62890625 82.3671875 C178.89439711 83.39563782 179.15988796 84.42408813 179.433424 85.48370361 C183.17031032 99.95627187 186.92898742 114.42297744 190.71484375 128.8828125 C190.94610395 129.76609915 191.17736416 130.6493858 191.41563225 131.55943871 C192.81426957 136.90056101 194.2137488 142.24146253 195.61340714 147.58231735 C205.42797489 185.03392557 215.11389765 222.51787956 224.74448395 260.01720905 C225.55917239 263.18938262 226.3740708 266.36150219 227.18899536 269.53361511 C228.18352499 273.40489628 229.1770631 277.27642977 230.16989136 281.14814758 C230.62126843 282.90615071 231.07269302 284.66414164 231.52416992 286.42211914 C231.84223476 287.66342071 231.84223476 287.66342071 232.16672516 288.92979908 C233.15665801 292.78029512 234.16350726 296.62452805 235.21499634 300.45870972 C235.40369199 301.14970733 235.59238764 301.84070494 235.78680134 302.55264187 C236.28996031 304.38557744 236.79982539 306.21666853 237.31025696 308.04759216 C238 311 238 311 238 315 C202.69 315 167.38 315 131 315 C120 269.77777778 120 269.77777778 120 265 C92.61 265 65.22 265 37 265 C36.67 267.97 36.34 270.94 36 274 C35.72839 275.49452873 35.42980166 276.98512982 35.07617188 278.46240234 C34.89928833 279.21282806 34.72240479 279.96325378 34.54016113 280.73641968 C34.35159546 281.51176056 34.16302979 282.28710144 33.96875 283.0859375 C33.77277222 283.90953766 33.57679443 284.73313782 33.37487793 285.58169556 C32.96385341 287.30490133 32.55029167 289.02750377 32.13427734 290.74951172 C31.49692134 293.3877436 30.86692868 296.02764954 30.23828125 298.66796875 C29.83635755 300.34905882 29.43402834 302.030052 29.03125 303.7109375 C28.74840149 304.8921669 28.74840149 304.8921669 28.45983887 306.09725952 C27.73194111 309.10752536 26.97988327 312.06035019 26 315 C-9.31 315 -44.62 315 -81 315 C-80.31864797 309.54918372 -79.5247122 304.57122147 -78.14013672 299.31835938 C-77.8580421 298.22349401 -77.8580421 298.22349401 -77.5702486 297.10651016 C-76.94484977 294.68432215 -76.31230775 292.26406108 -75.6796875 289.84375 C-75.22869468 288.10348097 -74.77812891 286.36310123 -74.32795715 284.62261963 C-73.1058734 279.90314505 -71.87744926 275.18534146 -70.64785385 270.46781921 C-69.60625797 266.46800957 -68.56856293 262.46719239 -67.53094006 258.46635056 C-59.82821314 228.76650528 -52.06128034 199.08338253 -44.2868042 169.4022522 C-34.44873428 131.83929072 -24.76476835 94.23704068 -15.10209656 56.62863159 C-13.38563717 49.94800024 -11.66835121 43.26758148 -9.95051098 36.58730507 C-8.90679755 32.52836001 -7.8635925 28.46928705 -6.82226562 24.409729 C-5.82143846 20.50820208 -4.81724856 16.60755012 -3.8125 12.70703125 C-3.532854 11.61436447 -3.25320801 10.52169769 -2.96508789 9.3959198 C-2.7149292 8.42713394 -2.46477051 7.45834808 -2.20703125 6.46020508 C-1.9953833 5.63668045 -1.78373535 4.81315582 -1.56567383 3.9646759 C-1 2 -1 2 0 0 Z M76 97 C71.13340994 116.79639127 66.34777823 136.61133487 61.68276978 156.45626831 C61.18584106 158.56910558 60.68777332 160.68167528 60.18856812 162.79397583 C59.48557084 165.77071297 58.78704432 168.74846308 58.08984375 171.7265625 C57.87777283 172.62182144 57.6657019 173.51708038 57.44720459 174.43946838 C57.25571838 175.26204636 57.06423218 176.08462433 56.86694336 176.93212891 C56.69867538 177.64881744 56.53040741 178.36550598 56.35704041 179.10391235 C55.90747424 181.16979594 55.90747424 181.16979594 56 184 C70.85 184 85.7 184 101 184 C98.98224835 174.93680573 96.96273147 165.87402358 94.9375 156.8125 C94.78908787 156.14844398 94.64067574 155.48438797 94.48776627 154.80020905 C90.1705486 135.48966056 85.80830228 116.19553915 81 97 C79.35 97 77.7 97 76 97 Z " fill="#4E4E4C" transform="translate(1739,50)"/>
<path d="M0 0 C35.31 0 70.62 0 107 0 C111.5947001 18.37880039 111.5947001 18.37880039 112.96160889 24.83349609 C113.12428513 25.59037342 113.28696137 26.34725075 113.45456719 27.12706375 C113.98368297 29.59197741 114.50896382 32.0576902 115.03417969 34.5234375 C115.41876613 36.31892855 115.80359491 38.11436771 116.18864441 39.90975952 C117.22181215 44.73045146 118.25163623 49.55185194 119.28081036 54.37339783 C120.36119125 59.43197294 121.44471678 64.48987443 122.52789307 69.54785156 C124.57345911 79.10207744 126.61624181 88.65689613 128.65799737 98.21193695 C130.98476589 109.10011279 133.31467889 119.98761499 135.64484167 130.87506485 C140.4333661 153.24930131 145.21798846 175.62437072 150 198 C151.32 198.33 152.64 198.66 154 199 C154.11612137 197.7517897 154.23224274 196.50357941 154.35188293 195.21754456 C154.98381274 189.56483614 156.15395541 184.07117907 157.36987305 178.51928711 C157.61112097 177.40048031 157.85236889 176.28167351 158.10092735 175.12896347 C158.90022388 171.42747855 159.70594033 167.72742255 160.51171875 164.02734375 C161.07854148 161.40883906 161.64501116 158.79026032 162.21104431 156.17158508 C163.56496519 149.91185623 164.9236696 143.65317564 166.28421849 137.39488441 C167.37438152 132.37986593 168.46271974 127.36445469 169.54974365 122.34875488 C169.70332982 121.64008636 169.85691598 120.93141784 170.01515627 120.20127451 C170.32519932 118.7706451 170.63523742 117.34001462 170.94527054 115.90938306 C173.67353349 103.32087374 176.40671495 90.7334379 179.14301109 78.14667249 C181.17329197 68.80742164 183.20005439 59.46741773 185.22300434 50.12657642 C186.73158943 43.1612917 188.24375553 36.19679233 189.75894165 29.23294067 C190.33467596 26.58665041 190.90895685 23.94005122 191.48202515 21.29318237 C192.24739062 17.76235584 193.01739221 14.23257804 193.7890625 10.703125 C194.00441147 9.70525467 194.21976044 8.70738434 194.44163513 7.67927551 C194.63572464 6.79672592 194.82981415 5.91417633 195.02978516 5.00488281 C195.27736069 3.86832245 195.27736069 3.86832245 195.52993774 2.70880127 C196 1 196 1 197 0 C198.39143689 -0.09543095 199.78768367 -0.12188575 201.18238831 -0.12025452 C202.53492203 -0.12231651 202.53492203 -0.12231651 203.91477966 -0.12442017 C205.41018028 -0.11902725 205.41018028 -0.11902725 206.93579102 -0.11352539 C207.97956909 -0.11367142 209.02334717 -0.11381744 210.09875488 -0.1139679 C213.56715943 -0.11326826 217.03551103 -0.10547353 220.50390625 -0.09765625 C222.90144318 -0.09579225 225.2989805 -0.09436826 227.69651794 -0.09336853 C234.02095584 -0.08954194 240.34537094 -0.07971046 246.6697998 -0.06866455 C253.11775402 -0.05845345 259.56571191 -0.05387156 266.01367188 -0.04882812 C278.675791 -0.03808832 291.33789429 -0.02120119 304 0 C300.98589247 13.96437201 297.62404017 27.82958808 294.171875 41.69140625 C293.59229903 44.02568308 293.01292366 46.36000972 292.43373108 48.69438171 C291.03047303 54.34806665 289.62523863 60.00125762 288.21915835 65.65424126 C286.56663454 72.29860696 284.91681299 78.94364276 283.26720726 85.58873343 C280.47495974 96.83659335 277.68135594 108.08411578 274.88663757 119.33136201 C268.56361027 144.77819775 262.24708833 170.22664746 255.93281364 195.67565632 C254.05553955 203.24165102 252.17759945 210.80747977 250.29872119 218.37307626 C248.5382346 225.46207144 246.77874496 232.55131382 245.01953125 239.640625 C244.56499132 241.47179021 244.56499132 241.47179021 244.10126877 243.33994865 C240.93392253 256.10313065 237.78039128 268.86942896 234.66943359 281.64648438 C234.40880851 282.7163496 234.14818342 283.78621483 233.87966061 284.88850021 C232.66408141 289.88082904 231.45159285 294.87387649 230.24433899 299.8682251 C229.82399277 301.59933636 229.40360084 303.33043653 228.9831543 305.06152344 C228.79479948 305.8455529 228.60644466 306.62958237 228.41238213 307.4373703 C227.1132096 312.77358081 227.1132096 312.77358081 226 315 C177.16 315 128.32 315 78 315 C76.25074503 309.7522351 74.61601846 304.83790793 73.31652832 299.52282715 C73.01852829 298.3121759 72.72052826 297.10152466 72.41349792 295.85418701 C72.09398099 294.54017175 71.77450922 293.22614551 71.45507812 291.91210938 C71.11007678 290.50526467 70.76471426 289.09850849 70.41902161 287.6918335 C69.67652527 284.66778975 68.93623463 281.64321807 68.19767761 278.61820984 C67.00900717 273.75023357 65.81497232 268.88358338 64.61975098 264.01721191 C64.41603111 263.1877334 64.21231124 262.35825488 64.00241804 261.50364065 C63.58596501 259.80805481 63.16949195 258.11247389 62.75299931 256.41689777 C62.11574389 253.82196514 61.47894088 251.22692181 60.84221649 248.63185883 C56.57777856 231.25598838 52.26753411 213.89158935 47.94934845 196.52901077 C46.93118351 192.43471837 45.91363245 188.34027341 44.89599609 184.24584961 C42.43142511 174.33037714 39.96578478 164.41517068 37.5 154.5 C31.61036467 130.81717898 25.72355394 107.13366345 19.8477602 83.44740391 C18.80172656 79.23082068 17.75535654 75.01432136 16.70837402 70.79797363 C14.33981898 61.25941148 11.9732849 51.72035646 9.61272955 42.179811 C8.60221412 38.09582772 7.59058627 34.0121285 6.57600403 29.92915344 C5.63763542 26.15264345 4.70254612 22.37533716 3.77006149 18.59737015 C3.42799806 17.21394232 3.08473728 15.83080994 2.74020767 14.44799423 C2.27121053 12.56480358 1.80692212 10.68044208 1.34289551 8.79602051 C1.08194344 7.74261726 0.82099136 6.68921402 0.55213165 5.60388947 C0 3 0 3 0 0 Z " fill="#4E4E4C" transform="translate(602,50)"/>
<path d="M0 0 C33.66 0 67.32 0 102 0 C102 103.95 102 207.9 102 315 C68.34 315 34.68 315 0 315 C0 211.05 0 107.1 0 0 Z " fill="#4E4E4C" transform="translate(930,50)"/>
</svg>
